<?xml version="1.0" encoding="UTF-8" standalone="no"?>
<svg
   xmlns:dc="http://purl.org/dc/elements/1.1/"
   xmlns:cc="http://creativecommons.org/ns#"
   xmlns:rdf="http://www.w3.org/1999/02/22-rdf-syntax-ns#"
   xmlns:svg="http://www.w3.org/2000/svg"
   xmlns="http://www.w3.org/2000/svg"
   xmlns:sodipodi="http://sodipodi.sourceforge.net/DTD/sodipodi-0.dtd"
   xmlns:inkscape="http://www.inkscape.org/namespaces/inkscape"
   width="117.19707mm"
   height="60.905254mm"
   viewBox="0 0 117.19708 60.905254"
   version="1.1"
   id="svg1205"
   inkscape:version="1.0.2 (e86c870879, 2021-01-15, custom)"
   sodipodi:docname="s20n.svg">
  <defs
     id="defs1199">
    <rect
       x="56.69643"
       y="110.36905"
       width="120.95238"
       height="112.6369"
       id="rect1770" />
    <rect
       x="56.69643"
       y="110.36905"
       width="120.95238"
       height="112.6369"
       id="rect1770-4" />
    <rect
       x="56.69643"
       y="110.36905"
       width="120.95238"
       height="112.6369"
       id="rect1788" />
    <rect
       x="56.69643"
       y="110.36905"
       width="120.95238"
       height="112.6369"
       id="rect1770-9" />
    <rect
       x="56.69643"
       y="110.36905"
       width="120.95238"
       height="112.6369"
       id="rect1788-1" />
    <rect
       x="56.69643"
       y="110.36905"
       width="120.95238"
       height="112.6369"
       id="rect1770-4-7" />
    <rect
       x="56.69643"
       y="110.36905"
       width="120.95238"
       height="112.6369"
       id="rect870" />
  </defs>
  <sodipodi:namedview
     id="base"
     pagecolor="#ffffff"
     bordercolor="#666666"
     borderopacity="1.0"
     inkscape:pageopacity="0.0"
     inkscape:pageshadow="2"
     inkscape:zoom="0.9899495"
     inkscape:cx="246.993"
     inkscape:cy="130.45668"
     inkscape:document-units="mm"
     inkscape:current-layer="layer1"
     inkscape:document-rotation="0"
     showgrid="false"
     inkscape:window-width="1366"
     inkscape:window-height="705"
     inkscape:window-x="-8"
     inkscape:window-y="-8"
     inkscape:window-maximized="1"
     fit-margin-top="5"
     fit-margin-left="5"
     fit-margin-right="5"
     fit-margin-bottom="5"
     lock-margins="true" />
  <metadata
     id="metadata1202">
    <rdf:RDF>
      <cc:Work
         rdf:about="">
        <dc:format>image/svg+xml</dc:format>
        <dc:type
           rdf:resource="http://purl.org/dc/dcmitype/StillImage" />
        <dc:title></dc:title>
      </cc:Work>
    </rdf:RDF>
  </metadata>
  <g
     inkscape:label="Layer 1"
     inkscape:groupmode="layer"
     id="layer1"
     transform="translate(-60.734183,-63.565727)">
    <g
       aria-label="S"
       transform="matrix(2.486753,0,0.58174526,2.486753,-139.43732,-184.15165)"
       id="text1768"
       style="font-style:normal;font-variant:normal;font-weight:normal;font-stretch:normal;font-size:10.5833px;line-height:1.25;font-family:'Arial Rounded MT Bold';-inkscape-font-specification:'Arial Rounded MT Bold, Normal';font-variant-ligatures:normal;font-variant-caps:normal;font-variant-numeric:normal;font-variant-east-asian:normal;white-space:pre;shape-inside:url(#rect1770);fill:#ffffff;fill-opacity:1;stroke:#ff3e00;stroke-width:3.09724;stroke-miterlimit:4;stroke-dasharray:none;stroke-opacity:1;paint-order:markers stroke fill">
      <path
         d="m 63.280822,117.63261 q 0,0.6873 -0.356566,1.23507 -0.351399,0.54776 -1.033525,0.85782 -0.682127,0.31006 -1.617468,0.31006 -1.121375,0 -1.85001,-0.42375 -0.516763,-0.30489 -0.842323,-0.81131 -0.320393,-0.5116 -0.320393,-0.99219 0,-0.27905 0.191202,-0.47542 0.19637,-0.20154 0.496092,-0.20154 0.242879,0 0.408243,0.15503 0.170532,0.15503 0.289387,0.45992 0.144693,0.36173 0.310058,0.60461 0.170531,0.24288 0.475421,0.40308 0.30489,0.15503 0.800982,0.15503 0.682127,0 1.105872,-0.31523 0.428913,-0.32039 0.428913,-0.79581 0,-0.37724 -0.232543,-0.60978 -0.227375,-0.23771 -0.594277,-0.36174 -0.361734,-0.12402 -0.971514,-0.26355 -0.816485,-0.1912 -1.369421,-0.44441 -0.547768,-0.25838 -0.873329,-0.69763 -0.320393,-0.44442 -0.320393,-1.10071 0,-0.62528 0.341064,-1.11104 0.341063,-0.48575 0.987017,-0.74413 0.645953,-0.26355 1.519282,-0.26355 0.697629,0 1.204057,0.1757 0.511595,0.17053 0.847491,0.45991 0.335895,0.28422 0.490924,0.59945 0.155029,0.31522 0.155029,0.61495 0,0.27388 -0.19637,0.49609 -0.191202,0.21704 -0.480589,0.21704 -0.263549,0 -0.403075,-0.12919 -0.134358,-0.13436 -0.294555,-0.43408 -0.206705,-0.42891 -0.496092,-0.66663 -0.289387,-0.24287 -0.930173,-0.24287 -0.594277,0 -0.961178,0.26355 -0.361734,0.25838 -0.361734,0.62528 0,0.22737 0.124023,0.39274 0.124023,0.16536 0.341063,0.28422 0.217041,0.11885 0.439249,0.18603 0.222207,0.0672 0.733803,0.19637 0.640785,0.14986 1.157548,0.33073 0.52193,0.18087 0.883664,0.43925 0.366902,0.25838 0.568439,0.65629 0.206705,0.39274 0.206705,0.96634 z"
         style="font-style:normal;font-variant:normal;font-weight:normal;font-stretch:normal;font-size:10.5833px;font-family:'Arial Rounded MT Bold';-inkscape-font-specification:'Arial Rounded MT Bold, Normal';font-variant-ligatures:normal;font-variant-caps:normal;font-variant-numeric:normal;font-variant-east-asian:normal;fill:#ffffff;fill-opacity:1;stroke:#ff3e00;stroke-width:3.09724;stroke-miterlimit:4;stroke-dasharray:none;stroke-opacity:1;paint-order:markers stroke fill"
         id="path907" />
    </g>
    <g
       aria-label="2"
       transform="matrix(3.9389965,0,0.92147973,3.9389965,-239.35803,-367.62102)"
       id="text1768-3"
       style="font-style:normal;font-variant:normal;font-weight:normal;font-stretch:normal;font-size:10.5833px;line-height:1.25;font-family:'Arial Rounded MT Bold';-inkscape-font-specification:'Arial Rounded MT Bold, Normal';font-variant-ligatures:normal;font-variant-caps:normal;font-variant-numeric:normal;font-variant-east-asian:normal;white-space:pre;shape-inside:url(#rect1770-4);fill:#ffffff;fill-opacity:1;stroke:#ff3e00;stroke-width:3.09724;stroke-miterlimit:4;stroke-dasharray:none;stroke-opacity:1;paint-order:markers stroke fill">
      <path
         d="m 59.058871,118.68681 h 2.697501 q 0.403075,0 0.614948,0.16536 0.211873,0.16537 0.211873,0.44959 0,0.25321 -0.170532,0.42891 -0.165364,0.1757 -0.506428,0.1757 H 58.10286 q -0.387572,0 -0.604612,-0.21187 -0.217041,-0.21704 -0.217041,-0.50643 0,-0.18604 0.139526,-0.49093 0.139526,-0.31005 0.30489,-0.48575 0.687295,-0.71314 1.240231,-1.21956 0.552936,-0.5116 0.790647,-0.67179 0.423745,-0.29973 0.702797,-0.59945 0.284219,-0.30489 0.428913,-0.62011 0.149861,-0.3204 0.149861,-0.62529 0,-0.33073 -0.160196,-0.58911 -0.155029,-0.26355 -0.428913,-0.40824 -0.268717,-0.14469 -0.58911,-0.14469 -0.676959,0 -1.064531,0.59427 -0.05168,0.0775 -0.175699,0.42375 -0.118856,0.34623 -0.273884,0.53227 -0.149862,0.18603 -0.444416,0.18603 -0.258382,0 -0.428913,-0.17053 -0.170532,-0.17053 -0.170532,-0.46509 0,-0.35656 0.160196,-0.74414 0.160197,-0.38757 0.475422,-0.70279 0.320393,-0.31523 0.80615,-0.50643 0.490924,-0.19637 1.147213,-0.19637 0.790647,0 1.348751,0.24805 0.361733,0.16536 0.635618,0.45475 0.273884,0.28938 0.423745,0.67179 0.155029,0.37723 0.155029,0.78548 0,0.64078 -0.320393,1.16788 -0.315225,0.52193 -0.645953,0.82165 -0.330728,0.29456 -1.11104,0.93018 -0.775144,0.63561 -1.064531,0.98701 -0.124023,0.13953 -0.253214,0.3359 z"
         id="path904" />
    </g>
    <g
       aria-label="n"
       transform="matrix(2.6125098,0,0.61116455,2.6125098,-67.216588,-198.16888)"
       id="text1768-2"
       style="font-style:normal;font-variant:normal;font-weight:normal;font-stretch:normal;font-size:10.5833px;line-height:1.25;font-family:'Arial Rounded MT Bold';-inkscape-font-specification:'Arial Rounded MT Bold, Normal';font-variant-ligatures:normal;font-variant-caps:normal;font-variant-numeric:normal;font-variant-east-asian:normal;white-space:pre;shape-inside:url(#rect1770-9);fill:#ffffff;fill-opacity:1;stroke:#ff3e00;stroke-width:3.09724;stroke-miterlimit:4;stroke-dasharray:none;stroke-opacity:1;paint-order:markers stroke fill">
      <path
         d="m 58.707472,115.07981 v 0.17053 q 0.37207,-0.49093 0.811318,-0.7183 0.444416,-0.23255 1.018022,-0.23255 0.558104,0 0.997352,0.24288 0.439249,0.24288 0.656289,0.6873 0.139526,0.25838 0.180867,0.5581 0.04134,0.29972 0.04134,0.76481 v 2.62515 q 0,0.42375 -0.19637,0.64079 -0.191202,0.21704 -0.50126,0.21704 -0.315225,0 -0.511595,-0.22221 -0.19637,-0.22221 -0.19637,-0.63562 v -2.35127 q 0,-0.69763 -0.196369,-1.06453 -0.191203,-0.37207 -0.769977,-0.37207 -0.377237,0 -0.687294,0.22738 -0.310058,0.22221 -0.454751,0.61495 -0.103353,0.31522 -0.103353,1.17821 v 1.76733 q 0,0.42892 -0.201537,0.64596 -0.19637,0.21187 -0.511595,0.21187 -0.30489,0 -0.50126,-0.22221 -0.19637,-0.22221 -0.19637,-0.63562 v -4.07725 q 0,-0.40308 0.175699,-0.59945 0.1757,-0.20154 0.48059,-0.20154 0.186034,0 0.335895,0.0878 0.149862,0.0879 0.237711,0.26355 0.09302,0.1757 0.09302,0.42892 z"
         id="path901" />
    </g>
    <g
       aria-label="0"
       transform="matrix(3.9389965,0,0.92147973,3.9389965,-212.8368,-366.76019)"
       id="text1768-3-0"
       style="font-style:normal;font-variant:normal;font-weight:normal;font-stretch:normal;font-size:10.5833px;line-height:1.25;font-family:'Arial Rounded MT Bold';-inkscape-font-specification:'Arial Rounded MT Bold, Normal';font-variant-ligatures:normal;font-variant-caps:normal;font-variant-numeric:normal;font-variant-east-asian:normal;white-space:pre;shape-inside:url(#rect1770-4-7);fill:#ffffff;fill-opacity:1;stroke:#ff3e00;stroke-width:3.09724;stroke-miterlimit:4;stroke-dasharray:none;stroke-opacity:1;paint-order:markers stroke fill">
      <path
         d="m 62.485008,116.19084 q 0,0.8475 -0.103353,1.45728 -0.103352,0.60978 -0.382404,1.10587 -0.351399,0.60978 -0.909503,0.94051 -0.558103,0.33072 -1.24023,0.33072 -0.785479,0 -1.410762,-0.44441 -0.620115,-0.44442 -0.935341,-1.2299 -0.160196,-0.42891 -0.23771,-0.94567 -0.07235,-0.52193 -0.07235,-1.12655 0,-0.78031 0.08268,-1.40559 0.08268,-0.62528 0.258381,-1.07487 0.30489,-0.74413 0.883664,-1.13171 0.583942,-0.39274 1.390092,-0.39274 0.532266,0 0.966346,0.1757 0.434081,0.17053 0.759641,0.50643 0.330728,0.33073 0.558104,0.82165 0.39274,0.85266 0.39274,2.41328 z m -1.41593,-0.10335 q 0,-0.94567 -0.113688,-1.54512 -0.113688,-0.60461 -0.382404,-0.9095 -0.268717,-0.31006 -0.744139,-0.31006 -0.682126,0 -0.950843,0.6873 -0.263549,0.68729 -0.263549,2.11872 0,0.97152 0.113688,1.59163 0.113688,0.62012 0.382404,0.94051 0.268717,0.31523 0.728636,0.31523 0.475421,0 0.744138,-0.33073 0.268717,-0.33073 0.377237,-0.94568 0.10852,-0.61495 0.10852,-1.6123 z"
         id="path898" />
    </g>
  </g>
</svg>
