<?xml version="1.0" encoding="UTF-8" standalone="no"?>
<svg
   xmlns:dc="http://purl.org/dc/elements/1.1/"
   xmlns:cc="http://creativecommons.org/ns#"
   xmlns:rdf="http://www.w3.org/1999/02/22-rdf-syntax-ns#"
   xmlns:svg="http://www.w3.org/2000/svg"
   xmlns="http://www.w3.org/2000/svg"
   xmlns:sodipodi="http://sodipodi.sourceforge.net/DTD/sodipodi-0.dtd"
   xmlns:inkscape="http://www.inkscape.org/namespaces/inkscape"
   height="259.16116"
   viewBox="0 0 457.39163 259.16115"
   width="457.39163"
   version="1.1"
   id="svg8"
   sodipodi:docname="icon-full.svg"
   inkscape:version="1.0.2 (e86c870879, 2021-01-15, custom)"
   inkscape:export-filename="C:\Users\201786939\Desktop\svelte-youtube-master\web\public\favicon.png"
   inkscape:export-xdpi="96"
   inkscape:export-ydpi="96">
  <metadata
     id="metadata14">
    <rdf:RDF>
      <cc:Work
         rdf:about="">
        <dc:format>image/svg+xml</dc:format>
        <dc:type
           rdf:resource="http://purl.org/dc/dcmitype/StillImage" />
        <dc:title></dc:title>
      </cc:Work>
    </rdf:RDF>
  </metadata>
  <defs
     id="defs12">
    <rect
       x="18.113207"
       y="307.92453"
       width="177.73586"
       height="109.81132"
       id="rect1183" />
    <rect
       x="18.113207"
       y="316.98114"
       width="313.5849"
       height="167.54716"
       id="rect1177" />
    <rect
       x="252.45284"
       y="161.8868"
       width="125.66038"
       height="103.01887"
       id="rect936" />
    <rect
       x="360"
       y="112.07547"
       width="178.86792"
       height="135.84906"
       id="rect842" />
    <rect
       x="360"
       y="112.07547"
       width="178.86792"
       height="135.84906"
       id="rect842-3" />
    <rect
       x="360"
       y="112.07547"
       width="178.86792"
       height="135.84906"
       id="rect887" />
    <rect
       x="252.45284"
       y="161.8868"
       width="125.66038"
       height="103.01887"
       id="rect936-3" />
    <rect
       x="252.45284"
       y="161.8868"
       width="125.66038"
       height="103.01887"
       id="rect953" />
    <rect
       x="252.45284"
       y="161.8868"
       width="125.66038"
       height="103.01887"
       id="rect936-3-0" />
    <rect
       x="252.45284"
       y="161.8868"
       width="125.66038"
       height="103.01887"
       id="rect990" />
    <rect
       x="252.45284"
       y="161.8868"
       width="125.66038"
       height="103.01887"
       id="rect936-3-0-7" />
    <rect
       x="252.45284"
       y="161.8868"
       width="125.66038"
       height="103.01887"
       id="rect1031" />
    <rect
       x="360"
       y="112.07547"
       width="178.86792"
       height="135.84906"
       id="rect842-4" />
    <rect
       x="360"
       y="112.07547"
       width="178.86792"
       height="135.84906"
       id="rect855" />
    <rect
       x="360"
       y="112.07547"
       width="178.86792"
       height="135.84906"
       id="rect842-4-8" />
    <rect
       x="360"
       y="112.07547"
       width="178.86792"
       height="135.84906"
       id="rect892" />
    <rect
       x="360"
       y="112.07547"
       width="178.86792"
       height="135.84906"
       id="rect842-4-7" />
    <rect
       x="360"
       y="112.07547"
       width="178.86792"
       height="135.84906"
       id="rect970" />
    <rect
       x="360"
       y="112.07547"
       width="178.86792"
       height="135.84906"
       id="rect842-4-7-5" />
    <rect
       x="360"
       y="112.07547"
       width="178.86792"
       height="135.84906"
       id="rect1007" />
    <rect
       x="360"
       y="112.07547"
       width="178.86792"
       height="135.84906"
       id="rect842-4-7-5-6" />
    <rect
       x="360"
       y="112.07547"
       width="178.86792"
       height="135.84906"
       id="rect1044" />
    <rect
       x="360"
       y="112.07547"
       width="178.86792"
       height="135.84906"
       id="rect842-4-7-5-3" />
    <rect
       x="360"
       y="112.07547"
       width="178.86792"
       height="135.84906"
       id="rect1094" />
  </defs>
  <sodipodi:namedview
     pagecolor="#ffffff"
     bordercolor="#666666"
     borderopacity="1"
     objecttolerance="10"
     gridtolerance="10"
     guidetolerance="10"
     inkscape:pageopacity="0"
     inkscape:pageshadow="2"
     inkscape:window-width="1366"
     inkscape:window-height="705"
     id="namedview10"
     showgrid="false"
     inkscape:snap-bbox="true"
     inkscape:bbox-paths="false"
     inkscape:bbox-nodes="false"
     inkscape:snap-bbox-edge-midpoints="false"
     inkscape:object-paths="true"
     inkscape:snap-intersection-paths="false"
     inkscape:snap-nodes="false"
     inkscape:zoom="0.88333335"
     inkscape:cx="192.61951"
     inkscape:cy="195.59331"
     inkscape:window-x="-8"
     inkscape:window-y="-8"
     inkscape:window-maximized="1"
     inkscape:current-layer="svg8"
     fit-margin-left="20"
     lock-margins="true"
     fit-margin-top="20"
     fit-margin-right="20"
     fit-margin-bottom="20"
     inkscape:document-rotation="0" />
  <g
     id="g1083"
     transform="translate(159.70958,5.5929046)">
    <path
       id="text840-9"
       style="font-style:normal;font-variant:normal;font-weight:normal;font-stretch:normal;font-size:40px;line-height:1.25;font-family:'Arial Rounded MT Bold';-inkscape-font-specification:'Arial Rounded MT Bold, Normal';font-variant-ligatures:normal;font-variant-caps:normal;font-variant-numeric:normal;font-variant-east-asian:normal;white-space:pre;shape-inside:url(#rect842-4);fill:#ff3e00;fill-opacity:1;stroke:none;stroke-width:0.345275"
       transform="matrix(3.39,-1.1778083,0.12834437,2.4297954,-1050.8457,269.53273)"
       d="m 365.07812,122.14844 c -1.81313,0 -4.05082,0.85835 -5.39648,2.38476 -1.50668,1.70125 -1.86719,3.72425 -1.86719,5.42578 v 15.41016 c 0,1.79903 0.47185,3.9074 1.94141,5.57031 1.30824,1.48037 3.5482,2.45508 5.47852,2.45508 1.86515,0 4.07707,-0.8615 5.43945,-2.33008 l 0.002,-0.002 c 0.70637,-0.76133 1.12583,-1.63057 1.44336,-2.50781 0.30497,0.83207 0.68717,1.65947 1.32813,2.38476 1.33582,1.5116 3.59932,2.45508 5.51757,2.45508 1.88711,0 4.12474,-0.92713 5.45704,-2.42187 1.51556,-1.6912 1.96289,-3.80586 1.96289,-5.60352 v -9.92187 c 0,-1.31361 -0.0512,-2.45793 -0.20118,-3.54493 -0.17416,-1.26279 -0.58449,-2.50619 -1.18554,-3.64257 -0.96002,-1.91331 -2.53757,-3.56459 -4.40235,-4.59571 -1.85755,-1.02712 -3.98384,-1.51562 -6.08398,-1.51562 -1.88313,0 -3.75395,0.42332 -5.47656,1.20898 -0.0974,-0.0646 -0.16657,-0.16148 -0.26758,-0.2207 -1.12253,-0.65801 -2.46774,-0.98828 -3.68946,-0.98828 z m 3.38672,1.41406 c -0.004,0.002 -0.006,0.006 -0.01,0.008 -0.002,0.001 -0.005,7.1e-4 -0.008,0.002 z m 3.00782,2.45898 0.0527,0.0996 c -0.009,-0.0175 -0.0262,-0.0333 -0.0352,-0.0508 -0.008,-0.0161 -0.009,-0.0328 -0.0176,-0.0488 z" />
    <g
       aria-label="n"
       transform="matrix(3.39,-1.1778083,0.12834437,2.4297954,-1050.8457,269.53273)"
       id="text840-9-5"
       style="font-style:normal;font-variant:normal;font-weight:normal;font-stretch:normal;font-size:40px;line-height:1.25;font-family:'Arial Rounded MT Bold';-inkscape-font-specification:'Arial Rounded MT Bold, Normal';font-variant-ligatures:normal;font-variant-caps:normal;font-variant-numeric:normal;font-variant-east-asian:normal;white-space:pre;shape-inside:url(#rect842-4-7);fill:#ffffff;fill-opacity:1;stroke:none;stroke-width:0.345275">
      <path
         d="m 367.59766,129.88031 v 0.64454 q 1.40625,-1.85547 3.0664,-2.71485 1.67969,-0.8789 3.84766,-0.8789 2.10937,0 3.76953,0.91796 1.66016,0.91797 2.48047,2.59766 0.52734,0.97656 0.68359,2.10938 0.15625,1.13281 0.15625,2.89062 v 9.92188 q 0,1.60156 -0.74219,2.42187 -0.72265,0.82031 -1.89453,0.82031 -1.1914,0 -1.93359,-0.83984 -0.74219,-0.83984 -0.74219,-2.40234 v -8.88672 q 0,-2.63672 -0.74219,-4.02344 -0.72265,-1.40625 -2.91015,-1.40625 -1.42578,0 -2.59766,0.85937 -1.17187,0.83985 -1.71875,2.32422 -0.39062,1.19141 -0.39062,4.45313 v 6.67969 q 0,1.62109 -0.76172,2.4414 -0.74219,0.80078 -1.9336,0.80078 -1.15234,0 -1.89453,-0.83984 -0.74218,-0.83984 -0.74218,-2.40234 v -15.41016 q 0,-1.52344 0.66406,-2.26563 0.66406,-0.76171 1.8164,-0.76171 0.70313,0 1.26954,0.33203 0.5664,0.33203 0.89843,0.99609 0.35157,0.66406 0.35157,1.62109 z"
         style="font-style:normal;font-variant:normal;font-weight:normal;font-stretch:normal;font-size:40px;font-family:'Arial Rounded MT Bold';-inkscape-font-specification:'Arial Rounded MT Bold, Normal';font-variant-ligatures:normal;font-variant-caps:normal;font-variant-numeric:normal;font-variant-east-asian:normal;fill:#ffffff;fill-opacity:1;stroke-width:0.345275"
         id="path892" />
    </g>
  </g>
  <g
     id="g1173"
     transform="translate(103.91086)">
    <g
       aria-label="8"
       id="text840-2"
       style="font-style:normal;font-weight:normal;font-size:40px;line-height:1.25;font-family:sans-serif;white-space:pre;shape-inside:url(#rect842-3);fill:#ff3e00;fill-opacity:1;stroke:none;stroke-width:0.177531"
       transform="matrix(6.5931237,-2.290689,0.24961365,4.7256464,-2306.5552,302.26462)">
      <path
         id="path914"
         style="font-style:normal;font-variant:normal;font-weight:normal;font-stretch:normal;font-size:40px;font-family:'Berlin Sans FB';-inkscape-font-specification:'Berlin Sans FB, Normal';font-variant-ligatures:normal;font-variant-caps:normal;font-variant-numeric:normal;font-variant-east-asian:normal;fill:#ff3e00;fill-opacity:1;stroke-width:0.177531"
         d="m 369.27734,120.81055 c -3.02635,0 -6.01077,0.78128 -8.41992,2.54101 a 4.6736865,4.6736865 0 0 0 -0.0293,0.0215 c -2.7316,2.02735 -4.38867,5.52786 -4.38867,8.9082 0,1.61665 0.35523,3.22215 0.97461,4.70117 -1.09677,1.73097 -1.77539,3.73223 -1.77539,5.72852 0,3.66614 1.60777,7.44679 4.58203,9.625 2.55048,1.87805 5.69918,2.60742 8.97852,2.60742 3.16129,0 6.29185,-0.90327 8.74414,-2.83594 2.65608,-2.07978 4.28906,-5.52391 4.28906,-8.88867 0,-2.008 -0.63456,-4.02537 -1.69336,-5.78125 0.0291,-0.0582 0.0774,-0.10752 0.10547,-0.16602 0.77037,-1.56945 1.23633,-3.32275 1.23633,-5.10742 0,-3.30562 -1.76594,-6.63132 -4.37891,-8.61328 -2.33247,-1.79219 -5.27748,-2.74023 -8.22461,-2.74023 z" />
    </g>
    <g
       aria-label="8"
       transform="matrix(6.5931237,-2.290689,0.24961365,4.7256464,-2306.5552,302.26313)"
       id="text840"
       style="font-style:normal;font-weight:normal;font-size:40px;line-height:1.25;font-family:sans-serif;white-space:pre;shape-inside:url(#rect842);fill:#ffffff;fill-opacity:1;stroke:none;stroke-width:0.177531">
      <path
         d="m 377.55859,143.21906 q 0,3.26172 -2.5,5.21484 -2.32422,1.83594 -5.85937,1.83594 -3.90625,0 -6.21094,-1.69922 -2.67578,-1.95312 -2.67578,-5.85937 0,-3.55469 3.04687,-5.25391 -0.99609,-0.78125 -1.62109,-2.22656 -0.625,-1.46485 -0.625,-2.94922 0,-3.30078 2.5,-5.15625 2.24609,-1.64063 5.66406,-1.64063 3.08594,0 5.39063,1.77735 2.53906,1.91406 2.53906,4.90234 0,1.52344 -0.76172,3.06641 -0.76172,1.60156 -2.01172,2.4414 3.125,1.77735 3.125,5.54688 z m -4.35547,-10.82031 q 0,-1.34766 -1.11328,-2.32422 -1.09375,-0.97657 -2.69531,-0.97657 -1.85547,0 -2.92969,0.74219 -1.07422,0.74219 -1.07422,1.9336 0,1.54296 2.2461,2.71484 1.01562,0.54687 3.78906,1.44531 1.77734,-1.48437 1.77734,-3.53515 z m -0.3125,11.11328 q 0,-1.77735 -2.34375,-2.92969 -1.89453,-0.74219 -3.80859,-1.46484 -2.14844,1.46484 -2.14844,3.84765 0,1.64063 1.09375,2.65625 1.19141,1.11328 3.35938,1.11328 3.84765,0 3.84765,-3.22265 z"
         style="font-style:normal;font-variant:normal;font-weight:normal;font-stretch:normal;font-size:40px;font-family:'Berlin Sans FB';-inkscape-font-specification:'Berlin Sans FB, Normal';font-variant-ligatures:normal;font-variant-caps:normal;font-variant-numeric:normal;font-variant-east-asian:normal;fill:#ffffff;fill-opacity:1;stroke-width:0.177531"
         id="path888" />
    </g>
  </g>
  <g
     id="g1077"
     transform="matrix(1.1250327,0,0,1.1250327,80.087646,-28.230735)"
     style="stroke-width:0.888863">
    <path
       id="text840-9-5-5-5"
       style="font-style:normal;font-variant:normal;font-weight:normal;font-stretch:normal;font-size:40px;line-height:1.25;font-family:'Arial Rounded MT Bold';-inkscape-font-specification:'Arial Rounded MT Bold, Normal';font-variant-ligatures:normal;font-variant-caps:normal;font-variant-numeric:normal;font-variant-east-asian:normal;white-space:pre;shape-inside:url(#rect842-4-7-5-6);fill:#ff3e00;fill-opacity:1;stroke:none;stroke-width:0.306902"
       transform="matrix(3.39,-1.1778083,0.12834437,2.4297954,-1287.6599,297.44127)"
       d="m 365.44922,115.95898 c -1.4691,0 -3.01537,0.61566 -4.08984,1.58594 -6.7e-4,6e-4 -0.001,0.001 -0.002,0.002 -6.5e-4,5.8e-4 -0.001,0.001 -0.002,0.002 -1.16384,1.05268 -1.87891,2.75949 -1.87891,4.28515 0,1.30276 0.56496,2.72657 1.5,3.82422 -1.12402,1.31332 -1.5,2.94584 -1.5,4.45703 v 15.25391 c 0,1.54689 0.37846,3.2175 1.51563,4.53906 a 3.2774991,3.2774991 0 0 0 0.0293,0.0332 c 1.06156,1.20124 2.80501,1.94726 4.36914,1.94726 1.54594,0 3.25792,-0.70624 4.33594,-1.86719 1.23142,-1.32616 1.63672,-3.06507 1.63672,-4.65234 v -15.41016 c 0,-1.45102 -0.48212,-3.03641 -1.52539,-4.2539 0.94963,-1.09661 1.52539,-2.54277 1.52539,-3.8711 0,-1.5354 -0.6626,-3.35929 -1.98633,-4.45703 -1.06796,-0.88562 -2.53686,-1.41797 -3.92773,-1.41797 z" />
    <g
       aria-label="i"
       transform="matrix(3.39,-1.1778083,0.12834437,2.4297954,-1287.6599,297.44127)"
       id="text840-9-5-5"
       style="font-style:normal;font-variant:normal;font-weight:normal;font-stretch:normal;font-size:40px;line-height:1.25;font-family:'Arial Rounded MT Bold';-inkscape-font-specification:'Arial Rounded MT Bold, Normal';font-variant-ligatures:normal;font-variant-caps:normal;font-variant-numeric:normal;font-variant-east-asian:normal;white-space:pre;shape-inside:url(#rect842-4-7-5);fill:#ffffff;fill-opacity:1;stroke:none;stroke-width:0.306902">
      <path
         d="m 368.08594,129.95844 v 15.41016 q 0,1.60156 -0.76172,2.42187 -0.76172,0.82031 -1.9336,0.82031 -1.17187,0 -1.91406,-0.83984 -0.72265,-0.83984 -0.72265,-2.40234 v -15.25391 q 0,-1.58203 0.72265,-2.38281 0.74219,-0.80078 1.91406,-0.80078 1.17188,0 1.9336,0.80078 0.76172,0.80078 0.76172,2.22656 z m -2.63672,-5.50781 q -1.11328,0 -1.91406,-0.6836 -0.78125,-0.68359 -0.78125,-1.93359 0,-1.13281 0.80078,-1.85547 0.82031,-0.74219 1.89453,-0.74219 1.03515,0 1.83594,0.66407 0.80078,0.66406 0.80078,1.93359 0,1.23047 -0.78125,1.93359 -0.78125,0.6836 -1.85547,0.6836 z"
         style="stroke-width:0.306902"
         id="path884" />
    </g>
  </g>
  <g
     id="g1197"
     transform="matrix(0.92971584,0,0.01622825,0.92971584,9.9222723,11.507753)"
     style="stroke-width:1.0756">
    <path
       id="text1136"
       style="font-style:normal;font-variant:normal;font-weight:normal;font-stretch:normal;font-size:40px;line-height:1.25;font-family:'Arial Rounded MT Bold';-inkscape-font-specification:'Arial Rounded MT Bold, Normal';font-variant-ligatures:normal;font-variant-caps:normal;font-variant-numeric:normal;font-variant-east-asian:normal;fill:#ff3e00;fill-opacity:1;stroke:none;stroke-width:0.253432"
       transform="matrix(4.426739,-1.2543689,0.05124625,4.0545201,-7.2723767,-329.91183)"
       d="m 29.945312,98.115234 c -1.318983,0 -3.306507,0.0011 -5.277343,2.087886 -0.879032,0.93073 -1.132133,1.37991 -1.898438,2.44727 -0.476225,0.66331 -1.013728,1.25168 -1.638672,1.79102 a 5.5391052,5.5391052 0 0 0 -0.02734,0.0254 c -0.403332,0.35291 -1.235419,0.91452 -2.482422,1.50195 -1.20225,0.56401 -2.083818,0.97448 -3.169922,1.78906 -1.923149,1.44236 -2.841797,4.07404 -2.841797,5.89649 0,1.9156 0.896905,4.00926 2.130859,5.32031 a 5.5391052,5.5391052 0 0 0 0.117188,0.11914 c 1.26041,1.26042 3.383369,2.26758 5.380859,2.26758 0.486683,0 0.741914,-0.14257 1.140625,-0.19531 v 8.62109 c 0,1.89553 0.468219,4.21021 2.150391,6.07422 1.496004,1.65772 3.990229,2.6289 6.025391,2.6289 2.24624,0 5.170209,-1.32616 6.583984,-3.40039 1.413774,-2.07422 1.630859,-4.12668 1.630859,-6.06445 v -22.36328 c 0,-1.75803 -0.414629,-3.84174 -1.798828,-5.61523 -1.329179,-1.703033 -3.907145,-2.931646 -6.025391,-2.931646 z" />
    <g
       aria-label="1"
       transform="matrix(1.0430279,-0.29555429,0.01207464,0.95532568,0,0)"
       id="text1136-9"
       style="font-style:normal;font-variant:normal;font-weight:normal;font-stretch:normal;font-size:169.765px;line-height:1.25;font-family:'Arial Rounded MT Bold';-inkscape-font-specification:'Arial Rounded MT Bold, Normal';font-variant-ligatures:normal;font-variant-caps:normal;font-variant-numeric:normal;font-variant-east-asian:normal;fill:#ffffff;fill-opacity:1;stroke:none;stroke-width:1.0756">
      <path
         d="m 111.27599,204.57228 v -75.43269 q -21.054837,16.16415 -28.349426,16.16415 -3.481509,0 -6.21698,-2.73547 -2.652578,-2.81836 -2.652578,-6.46566 0,-4.22754 2.652578,-6.21698 2.652578,-1.98943 9.366916,-5.13937 10.030061,-4.7249 15.99836,-9.94717 6.0512,-5.22226 10.69321,-11.68792 4.64201,-6.465657 6.05119,-7.957733 1.40918,-1.492075 5.30516,-1.492075 4.39333,0 7.04591,3.398616 2.65258,3.398612 2.65258,9.366912 v 94.91257 q 0,16.6615 -11.35635,16.6615 -5.05648,0 -8.12352,-3.39861 -3.06705,-3.39862 -3.06705,-10.03007 z"
         style="stroke-width:1.0756"
         id="path880" />
    </g>
  </g>
</svg>
