<?xml version="1.0" encoding="UTF-8" standalone="no"?>
<svg
   xmlns:dc="http://purl.org/dc/elements/1.1/"
   xmlns:cc="http://creativecommons.org/ns#"
   xmlns:rdf="http://www.w3.org/1999/02/22-rdf-syntax-ns#"
   xmlns:svg="http://www.w3.org/2000/svg"
   xmlns="http://www.w3.org/2000/svg"
   xmlns:sodipodi="http://sodipodi.sourceforge.net/DTD/sodipodi-0.dtd"
   xmlns:inkscape="http://www.inkscape.org/namespaces/inkscape"
   height="210.84155"
   viewBox="0 0 191.13861 210.84155"
   width="191.13861"
   version="1.1"
   id="svg8"
   sodipodi:docname="icon.svg"
   inkscape:version="1.0.2 (e86c870879, 2021-01-15, custom)"
   inkscape:export-filename="C:\Users\201786939\Desktop\svelte-youtube-master\web\public\favicon.png"
   inkscape:export-xdpi="96"
   inkscape:export-ydpi="96">
  <metadata
     id="metadata14">
    <rdf:RDF>
      <cc:Work
         rdf:about="">
        <dc:format>image/svg+xml</dc:format>
        <dc:type
           rdf:resource="http://purl.org/dc/dcmitype/StillImage" />
        <dc:title></dc:title>
      </cc:Work>
    </rdf:RDF>
  </metadata>
  <defs
     id="defs12">
    <rect
       x="252.45284"
       y="161.8868"
       width="125.66038"
       height="103.01887"
       id="rect936" />
    <rect
       x="360"
       y="112.07547"
       width="178.86792"
       height="135.84906"
       id="rect842" />
    <rect
       x="360"
       y="112.07547"
       width="178.86792"
       height="135.84906"
       id="rect842-3" />
    <rect
       x="360"
       y="112.07547"
       width="178.86792"
       height="135.84906"
       id="rect887" />
    <rect
       x="252.45284"
       y="161.8868"
       width="125.66038"
       height="103.01887"
       id="rect936-3" />
    <rect
       x="252.45284"
       y="161.8868"
       width="125.66038"
       height="103.01887"
       id="rect953" />
    <rect
       x="252.45284"
       y="161.8868"
       width="125.66038"
       height="103.01887"
       id="rect936-3-0" />
    <rect
       x="252.45284"
       y="161.8868"
       width="125.66038"
       height="103.01887"
       id="rect990" />
    <rect
       x="252.45284"
       y="161.8868"
       width="125.66038"
       height="103.01887"
       id="rect936-3-0-7" />
    <rect
       x="252.45284"
       y="161.8868"
       width="125.66038"
       height="103.01887"
       id="rect1031" />
  </defs>
  <sodipodi:namedview
     pagecolor="#ffffff"
     bordercolor="#666666"
     borderopacity="1"
     objecttolerance="10"
     gridtolerance="10"
     guidetolerance="10"
     inkscape:pageopacity="0"
     inkscape:pageshadow="2"
     inkscape:window-width="1366"
     inkscape:window-height="705"
     id="namedview10"
     showgrid="false"
     inkscape:snap-bbox="true"
     inkscape:bbox-paths="false"
     inkscape:bbox-nodes="false"
     inkscape:snap-bbox-edge-midpoints="false"
     inkscape:object-paths="true"
     inkscape:snap-intersection-paths="false"
     inkscape:snap-nodes="false"
     inkscape:zoom="1.7666667"
     inkscape:cx="86.471235"
     inkscape:cy="119.02758"
     inkscape:window-x="-8"
     inkscape:window-y="-8"
     inkscape:window-maximized="1"
     inkscape:current-layer="svg8"
     fit-margin-left="20"
     lock-margins="true"
     fit-margin-top="20"
     fit-margin-right="20"
     fit-margin-bottom="20"
     inkscape:document-rotation="0" />
  <g
     aria-label="8"
     id="text840-2"
     style="font-style:normal;font-weight:normal;font-size:40px;line-height:1.25;font-family:sans-serif;white-space:pre;shape-inside:url(#rect842-3);fill:#ff3e00;fill-opacity:1;stroke:none;stroke-width:0.177531"
     transform="matrix(6.5931237,-2.290689,0.24961365,4.7256464,-2373.5609,298.2727)">
    <path
       id="path914"
       style="font-style:normal;font-variant:normal;font-weight:normal;font-stretch:normal;font-size:40px;font-family:'Berlin Sans FB';-inkscape-font-specification:'Berlin Sans FB, Normal';font-variant-ligatures:normal;font-variant-caps:normal;font-variant-numeric:normal;font-variant-east-asian:normal;fill:#ff3e00;fill-opacity:1;stroke-width:0.177531"
       d="m 369.27734,120.81055 c -3.02635,0 -6.01077,0.78128 -8.41992,2.54101 a 4.6736865,4.6736865 0 0 0 -0.0293,0.0215 c -2.7316,2.02735 -4.38867,5.52786 -4.38867,8.9082 0,1.61665 0.35523,3.22215 0.97461,4.70117 -1.09677,1.73097 -1.77539,3.73223 -1.77539,5.72852 0,3.66614 1.60777,7.44679 4.58203,9.625 2.55048,1.87805 5.69918,2.60742 8.97852,2.60742 3.16129,0 6.29185,-0.90327 8.74414,-2.83594 2.65608,-2.07978 4.28906,-5.52391 4.28906,-8.88867 0,-2.008 -0.63456,-4.02537 -1.69336,-5.78125 0.0291,-0.0582 0.0774,-0.10752 0.10547,-0.16602 0.77037,-1.56945 1.23633,-3.32275 1.23633,-5.10742 0,-3.30562 -1.76594,-6.63132 -4.37891,-8.61328 -2.33247,-1.79219 -5.27748,-2.74023 -8.22461,-2.74023 z" />
  </g>
  <g
     aria-label="8"
     transform="matrix(6.5931237,-2.290689,0.24961365,4.7256464,-2373.5609,298.27121)"
     id="text840"
     style="font-style:normal;font-weight:normal;font-size:40px;line-height:1.25;font-family:sans-serif;white-space:pre;shape-inside:url(#rect842);fill:#ffffff;fill-opacity:1;stroke:none;stroke-width:0.177531">
    <path
       d="m 377.55859,143.21906 q 0,3.26172 -2.5,5.21484 -2.32422,1.83594 -5.85937,1.83594 -3.90625,0 -6.21094,-1.69922 -2.67578,-1.95312 -2.67578,-5.85937 0,-3.55469 3.04687,-5.25391 -0.99609,-0.78125 -1.62109,-2.22656 -0.625,-1.46485 -0.625,-2.94922 0,-3.30078 2.5,-5.15625 2.24609,-1.64063 5.66406,-1.64063 3.08594,0 5.39063,1.77735 2.53906,1.91406 2.53906,4.90234 0,1.52344 -0.76172,3.06641 -0.76172,1.60156 -2.01172,2.4414 3.125,1.77735 3.125,5.54688 z m -4.35547,-10.82031 q 0,-1.34766 -1.11328,-2.32422 -1.09375,-0.97657 -2.69531,-0.97657 -1.85547,0 -2.92969,0.74219 -1.07422,0.74219 -1.07422,1.9336 0,1.54296 2.2461,2.71484 1.01562,0.54687 3.78906,1.44531 1.77734,-1.48437 1.77734,-3.53515 z m -0.3125,11.11328 q 0,-1.77735 -2.34375,-2.92969 -1.89453,-0.74219 -3.80859,-1.46484 -2.14844,1.46484 -2.14844,3.84765 0,1.64063 1.09375,2.65625 1.19141,1.11328 3.35938,1.11328 3.84765,0 3.84765,-3.22265 z"
       style="font-style:normal;font-variant:normal;font-weight:normal;font-stretch:normal;font-size:40px;font-family:'Berlin Sans FB';-inkscape-font-specification:'Berlin Sans FB, Normal';font-variant-ligatures:normal;font-variant-caps:normal;font-variant-numeric:normal;font-variant-east-asian:normal;fill:#ffffff;fill-opacity:1;stroke-width:0.177531"
       id="path846" />
  </g>
</svg>
